<svg xmlns="http://www.w3.org/2000/svg" viewBox="0 0 32 32"><path fill="#2c0434" d="M138.643 1.691c-.201.201-1.891.571-3.754.822-3.282.443-5.426.876-10.139 2.045-1.237.308-2.925.723-3.75.924-.825.201-1.612.456-1.75.566-.138.111-.7.314-1.25.452s-1.225.362-1.5.5c-.275.138-.95.362-1.5.5s-1.225.362-1.5.5a8.788 8.788 0 0 1-1.25.461c-2.798.789-9.084 3.459-13.5 5.735-2.062 1.062-3.75 1.669-3.75 1.347 0-.775-12.125 5.513-13.82 7.166-.726.709-2.413 1.562-3.75 1.898-1.336.335-2.43.981-2.43 1.434 0 .453-.978 1.135-2.173 1.514s-3.003 1.463-4.017 2.407c-1.014.945-3.074 2.353-4.577 3.128-1.503.776-3.595 2.188-4.649 3.139-1.054.951-3.744 2.976-5.978 4.5-5.608 3.826-8.264 7.005-10.252 12.271-.934 2.475-2.126 5.063-2.649 5.75-.522.688-.615 1.25-.205 1.25.41 0 .185.675-.5 1.5s-.91 1.5-.5 1.5c.41 0 .185.675-.5 1.5s-.91 1.5-.5 1.5c.41 0 .185.675-.5 1.5s-.985 1.5-.667 1.5c.318 0-.116 1.912-.964 4.25-.848 2.337-1.628 4.7-1.734 5.25-.105.55-.543 1.563-.972 2.25-.43.688-.523 1.25-.209 1.25.315 0-.085 1.575-.89 3.5-.804 1.925-1.271 3.5-1.038 3.5.234 0-.054 1.237-.64 2.75-1.158 2.994-1.717 5.142-2.539 9.75-.294 1.65-.939 3.491-1.432 4.092-.494.601-.612 1.377-.264 1.726.349.348.124 1.248-.5 2-.623.751-.92 1.579-.659 1.84.26.261.007 2.02-.564 3.908-1.074 3.555-1.715 6.002-2.471 9.434-.242 1.1-.693 3.125-1.003 4.5a214.32 214.32 0 0 0-.956 4.5c-1.154 5.862-1.425 7.293-1.986 10.5a373.4 373.4 0 0 1-1 5.5 359.08 359.08 0 0 0-.994 5.5c-.334 1.925-.848 4.85-1.143 6.5-1.082 6.053-3.272 23.075-3.86 30-1.633 19.213-1.653 19.496-3.184 44.5-1.022 16.696-.805 27.181.882 42.601.066.605 3.035 3.755 6.598 7 3.563 3.244 7.602 6.955 8.975 8.245 3.076 2.891 11.013 6.396 12.459 5.503.585-.362 2.007-.791 3.159-.954 1.153-.162 3.671-.561 5.596-.886 4.585-.774 9.61-1.498 14.25-2.052 2.063-.246 5.663-.687 8-.98 27.925-3.494 49.511-4.774 80.75-4.785 22.367-.008 33.239.367 51 1.759 6.524.512 23.679 2.244 30.5 3.081 2.2.269 5.8.702 8 .961 8.797 1.035 11.22 1.409 16.5 2.543 6.777 1.457 9.971 1.363 12.75-.373.688-.43 1.25-.512 1.25-.183 0 .33.563.129 1.25-.446.688-.574 4.615-3.812 8.727-7.195 11.314-9.306 10.979-8.729 11.747-20.277.966-14.549-.684-54.623-3.235-78.562-.205-1.925-.607-5.75-.894-8.5-.507-4.869-1.194-9.895-2.189-16-.268-1.65-.676-4.35-.906-6-.436-3.137-1.35-8.589-2.012-12a373.4 373.4 0 0 1-1-5.5c-.337-1.925-.808-4.4-1.047-5.5-.24-1.1-.638-3.125-.884-4.5a88.389 88.389 0 0 0-1.082-5 85.29 85.29 0 0 1-1-4.5c-.439-2.39-.91-4.254-2.897-11.453-.827-3-1.3-5.659-1.05-5.908.25-.25.051-.946-.443-1.547-.493-.601-1.182-2.667-1.53-4.592-.697-3.857-.948-4.784-1.892-7-.352-.825-.802-2.4-1.001-3.5-.199-1.1-.649-2.675-1-3.5-.351-.825-.836-2.625-1.076-4-.241-1.375-.527-2.612-.637-2.75-.109-.138-.294-.588-.41-1-.117-.412-.475-1.425-.796-2.25-1.926-4.939-8.124-24.625-7.951-25.25.114-.413-.317-.75-.959-.75-.641 0-.926-.24-.633-.533.705-.705-5.086-6.449-9.601-9.525-1.972-1.343-3.588-2.779-3.592-3.192-.004-.413-.406-.75-.893-.75-.922 0-13.238-7.915-14.114-9.071-.275-.363-1.51-.975-2.744-1.36-1.234-.385-2.809-1.238-3.5-1.896-1.305-1.243-16.309-8.809-17.245-8.697-.292.036-1.99-.708-3.771-1.651-1.782-.944-3.69-1.808-4.24-1.921-.55-.113-2.35-.775-4-1.471-1.65-.696-3.338-1.359-3.75-1.474A8.68 8.68 0 0 1 185.5 8c-.275-.138-.95-.362-1.5-.5s-1.225-.362-1.5-.5c-.275-.138-.95-.362-1.5-.5s-1.225-.362-1.5-.5c-.275-.138-.95-.362-1.5-.5s-1.113-.341-1.25-.452c-.432-.347-6.861-1.808-11.75-2.669-3.255-.574-25.881-1.164-26.357-.688m63.327 89.646c-.259.243-2.318.695-4.576 1.003-4.966.678-12.394 3.536-12.394 4.769 0 .49-.496.891-1.101.891-1.584 0-10.899 9.141-10.899 10.695 0 .718-.395 1.305-.879 1.305-.778 0-3.213 4.819-3.789 7.5-.118.55-.465 2.125-.77 3.5-1.578 7.116-1.601 9.129-.159 13.986 1.501 5.054 7.032 12.014 9.547 12.014.578 0 1.05.42 1.05.933 0 .762 2.768 2.176 5 2.553.275.047 1.512.647 2.75 1.335 1.238.687 2.25.953 2.25.592 0-.362.675-.098 1.5.587.825.685 1.5.91 1.5.5 0-.41.744-.127 1.654.628.909.754 1.809 1.259 2 1.122.19-.137.459-.216.596-.173.137.042.925.24 1.75.441s2.625.651 4 1c6.235 1.584 9.284 1.847 21 1.817 19.125-.05 24.811-2.131 30.359-11.107 2.122-3.434 2.571-16.948.63-18.978-.131-.137-.352-.7-.489-1.25s-.363-1.225-.5-1.5c-.137-.275-.306-.852-.375-1.282-.332-2.081-4.031-9.218-4.777-9.218-.466 0-.848-.628-.848-1.395 0-1.741-12.755-13.605-14.626-13.605-.756 0-1.374-.477-1.374-1.059s-.45-.781-1-.441-1 .066-1-.608c0-.674-.296-.929-.658-.567-.362.362-1.216.195-1.898-.371-.682-.566-2.186-1.238-3.342-1.492-2.135-.469-4.3-.998-8.352-2.041a57.528 57.528 0 0 0-4.25-.901c-1.1-.177-3.139-.615-4.53-.974-1.392-.359-2.742-.453-3-.209M92.584 92.749c-.138.138-1.563.452-3.167.696-3.206.49-6.776 1.288-7.167 1.603-.138.111-.7.314-1.25.452s-1.225.362-1.5.5c-.275.138-.838.322-1.25.41-.412.089-1.703.692-2.869 1.34-1.165.649-2.402.895-2.75.548-.347-.347-.631-.08-.631.594 0 .674-.45.948-1 .608-.55-.34-1-.19-1 .333 0 .522-1.085 1.223-2.412 1.555-2.844.714-17.588 14.999-17.588 17.04 0 .773-.475 1.564-1.054 1.757-.58.193-1.186 1.018-1.347 1.833-.16.815-.785 2.68-1.387 4.144-1.07 2.6-.989 14.05.132 18.645 3.508 14.376 20.86 18.404 50.406 11.703 1.237-.28 3.216-.722 4.396-.981 4.107-.901 9.368-2.841 11.551-4.261 1.209-.786 2.334-1.327 2.5-1.202.712.534 4.803-1.284 4.803-2.133 0-.513.603-.933 1.339-.933 1.529 0 8.661-7.375 8.661-8.956 0-.574.525-1.044 1.167-1.044.641 0 .87-.296.508-.658-.362-.362-.167-1.249.432-1.971 1.248-1.504 1.597-7.684.643-11.371-.356-1.375-.849-3.4-1.094-4.5-.703-3.146-3.941-9.5-4.841-9.5-.448 0-.815-.49-.815-1.089 0-1.328-8.693-9.911-10.038-9.911-.529 0-.962-.395-.962-.879 0-2.413-20.396-6.391-22.416-4.372" fill-rule="evenodd"/></svg>